<svg xmlns="http://www.w3.org/2000/svg" version="1.1" xmlns:xlink="http://www.w3.org/1999/xlink" xmlns:svgjs="http://svgjs.dev/svgjs" width="1000" height="391" viewBox="0 0 1000 391"><g transform="matrix(1,0,0,1,-0.6060606060606233,-0.17156115405239802)"><svg viewBox="0 0 396 155" data-background-color="#ffffff" preserveAspectRatio="xMidYMid meet" height="391" width="1000" xmlns="http://www.w3.org/2000/svg" xmlns:xlink="http://www.w3.org/1999/xlink"><g id="tight-bounds" transform="matrix(1,0,0,1,0.2400000000000091,0.06801017615887872)"><svg viewBox="0 0 395.52 154.86397964768224" height="154.86397964768224" width="395.52"><g><svg viewBox="0 0 606.332061414368 237.40644219916038" height="154.86397964768224" width="395.52"><g><rect width="8.235692566368" height="237.40644219916038" x="233.534764224" y="0" fill="#336a86" opacity="1" stroke-width="0" stroke="transparent" fill-opacity="1" class="rect-o-0" data-fill-palette-color="primary" rx="1%" id="o-0" data-palette-color="#336a86"></rect></g><g transform="matrix(1,0,0,1,263.329861414368,0.5905632890526249)"><svg viewBox="0 0 343.0022 236.22531562105513" height="236.22531562105513" width="343.0022"><g id="textblocktransform"><svg viewBox="0 0 343.0022 236.22531562105513" height="236.22531562105513" width="343.0022" id="textblock"><g><svg viewBox="0 0 343.0022 198.764" height="198.764" width="343.0022"><g transform="matrix(1,0,0,1,0,0)"><svg width="343.0022" viewBox="3.40000057220459 -33 127.70000457763672 70.5" height="198.764" data-palette-color="#336a86"><svg></svg><svg></svg><g class="undefined-text-0" data-fill-palette-color="primary" id="text-0"><path xmlns="http://www.w3.org/2000/svg" d="M5.4-33h12.5c3.367 0 6.067 0.867 8.1 2.6 2.033 1.733 3.05 4.083 3.05 7.05v0c0 2.967-1.023 5.273-3.07 6.92-2.053 1.653-4.763 2.48-8.13 2.48v0l-0.35 0.25h-8.1v13.7h-4zM9.4-17.45h8.45c2.367 0 4.127-0.493 5.28-1.48 1.147-0.98 1.72-2.453 1.72-4.42v0c0-1.967-0.573-3.443-1.72-4.43-1.153-0.98-2.913-1.47-5.28-1.47v0h-8.45zM16.8-14.45l3.35-2.2 10.9 16.65h-4.75zM62.55 0h-23.9v-33h23.15v3.75h-19.15v10.65h14.9v3.75h-14.9v11.1h19.9zM70.65 0h-4.2l12.85-33h4.75l12.8 33h-4.25l-9.4-24.6-1.55-4.6h-0.1l-1.45 4.45zM90.4-9.15h-17.65v-3.75h17.65zM125.65-33h3.8v33h-4.95l-13.8-22.1-3.5-6.2h-0.05l0.2 5v23.3h-3.8v-33h4.95l13.75 22 3.55 6.35h0.05l-0.2-5.05z" fill="#336a86" fill-rule="nonzero" stroke="none" stroke-width="1" stroke-linecap="butt" stroke-linejoin="miter" stroke-miterlimit="10" stroke-dasharray="" stroke-dashoffset="0" font-family="none" font-weight="none" font-size="none" text-anchor="none" style="mix-blend-mode: normal" data-fill-palette-color="primary" opacity="1"></path><path xmlns="http://www.w3.org/2000/svg" d="M18.7 3.5v0c3.133 0 5.843 0.69 8.13 2.07 2.28 1.387 4.047 3.347 5.3 5.88 1.247 2.533 1.87 5.55 1.87 9.05v0c0 3.5-0.623 6.517-1.87 9.05-1.253 2.533-3.02 4.49-5.3 5.87-2.287 1.387-4.997 2.08-8.13 2.08v0c-3.133 0-5.84-0.693-8.12-2.08-2.287-1.38-4.053-3.337-5.3-5.87-1.253-2.533-1.88-5.55-1.88-9.05v0c0-3.5 0.627-6.517 1.88-9.05 1.247-2.533 3.013-4.493 5.3-5.88 2.28-1.38 4.987-2.07 8.12-2.07zM18.7 7.25v0c-2.267 0-4.233 0.523-5.9 1.57-1.667 1.053-2.95 2.57-3.85 4.55-0.9 1.987-1.35 4.363-1.35 7.13v0c0 2.767 0.45 5.14 1.35 7.12 0.9 1.987 2.183 3.503 3.85 4.55 1.667 1.053 3.633 1.58 5.9 1.58v0c2.3 0 4.277-0.527 5.93-1.58 1.647-1.047 2.92-2.563 3.82-4.55 0.9-1.98 1.35-4.353 1.35-7.12v0c0-2.767-0.45-5.143-1.35-7.13-0.9-1.98-2.173-3.497-3.82-4.55-1.653-1.047-3.63-1.57-5.93-1.57zM42.8 4h11.65c2.233 0 4.173 0.407 5.82 1.22 1.653 0.82 2.947 1.98 3.88 3.48 0.933 1.5 1.4 3.283 1.4 5.35v0c0 2.067-0.467 3.85-1.4 5.35-0.933 1.5-2.227 2.657-3.88 3.47-1.647 0.82-3.587 1.23-5.82 1.23v0h-7.65v12.9h-4zM46.8 20.35h7.05c2.6 0 4.5-0.543 5.7-1.63 1.2-1.08 1.8-2.637 1.8-4.67v0c0-2.067-0.6-3.633-1.8-4.7-1.2-1.067-3.1-1.6-5.7-1.6v0h-7.05zM97.2 37h-23.9v-33h23.15v3.75h-19.15v10.65h14.9v3.75h-14.9v11.1h19.9zM127.3 4h3.8v33h-4.95l-13.8-22.1-3.5-6.2h-0.05l0.2 5v23.3h-3.8v-33h4.95l13.75 22 3.55 6.35h0.05l-0.2-5.05z" fill="#336a86" fill-rule="nonzero" stroke="none" stroke-width="1" stroke-linecap="butt" stroke-linejoin="miter" stroke-miterlimit="10" stroke-dasharray="" stroke-dashoffset="0" font-family="none" font-weight="none" font-size="none" text-anchor="none" style="mix-blend-mode: normal" data-fill-palette-color="primary" opacity="1"></path></g></svg></g></svg></g><g transform="matrix(1,0,0,1,0,220.323404624)"><svg viewBox="0 0 260.681672 15.901910997055108" height="15.901910997055108" width="260.681672"><g transform="matrix(1,0,0,1,0,0)"><svg width="260.681672" viewBox="1.75 -37.5 713.02001953125 43.5" height="15.901910997055108" data-palette-color="#8eaec4"><path d="M9.25 0L21.35 0 21.35-3.95 17.7-3.95 17.7-31.05 25.45-31.05 25.45-27.3 29.4-27.3 29.4-35 1.75-35 1.75-27.3 5.7-27.3 5.7-31.05 13.55-31.05 13.55-3.95 9.25-3.95 9.25 0ZM32.9 0L44 0 44-3.95 40.85-3.95 40.85-9.1Q40.85-10.4 41.4-11.5 41.95-12.6 42.85-13.4L42.85-13.4Q43.75-14.2 44.92-14.65 46.1-15.1 47.4-15.1L47.4-15.1Q49.3-15 50.17-14.03 51.05-13.05 51.15-11.7L51.15-11.7 51.15-3.95 47.3-3.95 47.3 0 58.4 0 58.4-3.95 55.3-3.95 55.3-13.6Q55.2-16.1 53.5-17.65 51.8-19.2 48.85-19.2L48.85-19.2Q46-19.05 43.9-17.73 41.8-16.4 40.7-13.95L40.7-13.95 40.85-16.2 40.85-37.5 32.9-37.5 32.9-33.55 36.7-33.55 36.7-3.95 32.9-3.95 32.9 0ZM61.9 0L73 0 73-3.95 69.55-3.95 69.55-18.75 61.9-18.75 61.9-14.8 65.4-14.8 65.4-3.95 61.9-3.95 61.9 0ZM70.09-26L70.09-26Q70.09-27.15 69.3-27.9 68.5-28.65 67.55-28.65L67.55-28.65Q66.55-28.65 65.75-27.9 64.95-27.15 64.95-26L64.95-26Q64.95-24.85 65.75-24.13 66.55-23.4 67.55-23.4L67.55-23.4Q68.5-23.4 69.3-24.13 70.09-24.85 70.09-26ZM76.49 0L87.59 0 87.59-3.95 84.44-3.95 84.44-9.1Q84.44-10.4 84.99-11.5 85.54-12.6 86.44-13.4L86.44-13.4Q87.34-14.2 88.52-14.65 89.69-15.1 90.99-15.1L90.99-15.1Q92.89-15 93.77-14.03 94.64-13.05 94.74-11.7L94.74-11.7 94.74-3.95 90.89-3.95 90.89 0 101.99 0 101.99-3.95 98.89-3.95 98.89-13.6Q98.79-16.1 97.09-17.65 95.39-19.2 92.44-19.2L92.44-19.2Q89.74-19.2 87.52-17.78 85.29-16.35 84.29-13.95L84.29-13.95Q84.19-15.15 84.12-16.13 84.04-17.1 83.94-18.3L83.94-18.3 83.94-18.75 76.99-18.75 76.99-14.8 80.29-14.8 80.29-3.95 76.49-3.95 76.49 0ZM105.49-3.95L105.49 0 116.59 0 116.59-3.95 113.44-3.95 113.44-5.7 115.89-8Q116.59-7 117.34-5.98 118.09-4.95 118.84-3.95L118.84-3.95 118.29-3.95 118.29 0 128.34 0 128.34-3.95 123.69-3.95Q122.44-5.65 121.22-7.33 119.99-9 118.79-10.7L118.79-10.7Q119.89-11.7 120.94-12.75 121.99-13.8 123.09-14.8L123.09-14.8 126.19-14.8 126.19-18.75 116.14-18.75 116.14-14.8 117.99-14.8 113.44-10.55 113.44-37.5 105.99-37.5 105.99-33.55 109.29-33.55 109.29-3.95 105.49-3.95ZM130.19 6L133.94 6Q135.04 3.4 136.09 0.85 137.14-1.7 138.24-4.3L138.24-4.3 134.04-4.3Q133.04-1.7 132.11 0.85 131.19 3.4 130.19 6L130.19 6ZM156.83 0L165.63 0Q170.93 0 174.61-1.63 178.28-3.25 180.58-5.8L180.58-5.8Q182.88-8.3 183.91-11.4 184.93-14.5 184.93-17.45L184.93-17.45Q184.93-21.5 183.53-24.73 182.13-27.95 179.73-30.25L179.73-30.25Q177.33-32.55 174.13-33.77 170.93-35 167.33-35L167.33-35 156.83-35 156.83-31.05 159.18-31.05 159.18-4 156.83-4 156.83 0ZM163.33-4L163.33-31.05 166.83-31.05Q169.78-31.05 172.33-30.1 174.88-29.15 176.78-27.4L176.78-27.4Q178.63-25.6 179.71-23.1 180.78-20.6 180.78-17.5L180.78-17.5Q180.78-14.4 179.71-11.93 178.63-9.45 176.78-7.7L176.78-7.7Q174.88-5.9 172.33-4.95 169.78-4 166.83-4L166.83-4 163.33-4ZM205.58-2.45L205.58-2.45Q206.93-3.8 207.71-5.58 208.48-7.35 208.48-9.4L208.48-9.4Q208.48-11.4 207.71-13.2 206.93-15 205.58-16.35L205.58-16.35Q204.23-17.65 202.38-18.43 200.53-19.2 198.43-19.2L198.43-19.2Q196.33-19.2 194.5-18.43 192.68-17.65 191.33-16.35L191.33-16.35Q189.98-15 189.21-13.2 188.43-11.4 188.43-9.4L188.43-9.4Q188.43-7.35 189.21-5.58 189.98-3.8 191.33-2.45L191.33-2.45Q192.68-1.1 194.5-0.33 196.33 0.45 198.43 0.45L198.43 0.45Q200.53 0.45 202.38-0.33 204.23-1.1 205.58-2.45ZM194.28-5.3L194.28-5.3Q193.48-6.05 193.03-7.1 192.58-8.15 192.58-9.35L192.58-9.35Q192.58-10.55 193.03-11.6 193.48-12.65 194.28-13.45L194.28-13.45Q195.03-14.25 196.08-14.7 197.13-15.15 198.33-15.15L198.33-15.15Q199.53-15.15 200.58-14.7 201.63-14.25 202.43-13.45L202.43-13.45Q203.23-12.65 203.68-11.6 204.13-10.55 204.13-9.35L204.13-9.35Q204.13-8.15 203.68-7.1 203.23-6.05 202.43-5.3L202.43-5.3Q201.63-4.5 200.58-4.05 199.53-3.6 198.33-3.6L198.33-3.6Q197.13-3.6 196.08-4.05 195.03-4.5 194.28-5.3ZM210.33 6L214.08 6Q215.18 3.4 216.23 0.85 217.28-1.7 218.38-4.3L218.38-4.3 214.18-4.3Q213.18-1.7 212.25 0.85 211.33 3.4 210.33 6L210.33 6ZM263.92-2.1L263.92-2.1 261.67-5.4Q260.12-4.5 258.4-4.03 256.67-3.55 254.82-3.55L254.82-3.55Q251.97-3.55 249.5-4.65 247.02-5.75 245.17-7.65L245.17-7.65Q243.27-9.5 242.2-12.05 241.12-14.6 241.12-17.45L241.12-17.45Q241.12-20.3 242.2-22.85 243.27-25.4 245.17-27.35L245.17-27.35Q247.02-29.25 249.5-30.35 251.97-31.45 254.82-31.45L254.82-31.45Q256.17-31.45 257.47-31.18 258.77-30.9 260.02-30.35L260.02-30.35 260.02-27.3 263.97-27.3 263.97-32.9Q261.92-34.1 259.65-34.75 257.37-35.4 254.82-35.4L254.82-35.4Q251.12-35.4 247.87-33.98 244.62-32.55 242.22-30.15L242.22-30.15Q239.77-27.7 238.37-24.43 236.97-21.15 236.97-17.45L236.97-17.45Q236.97-13.75 238.37-10.5 239.77-7.25 242.22-4.85L242.22-4.85Q244.62-2.4 247.87-1 251.12 0.4 254.82 0.4L254.82 0.4Q257.37 0.4 259.65-0.28 261.92-0.95 263.92-2.1ZM284.62-2.45L284.62-2.45Q285.97-3.8 286.75-5.58 287.52-7.35 287.52-9.4L287.52-9.4Q287.52-11.4 286.75-13.2 285.97-15 284.62-16.35L284.62-16.35Q283.27-17.65 281.42-18.43 279.57-19.2 277.47-19.2L277.47-19.2Q275.37-19.2 273.55-18.43 271.72-17.65 270.37-16.35L270.37-16.35Q269.02-15 268.25-13.2 267.47-11.4 267.47-9.4L267.47-9.4Q267.47-7.35 268.25-5.58 269.02-3.8 270.37-2.45L270.37-2.45Q271.72-1.1 273.55-0.33 275.37 0.45 277.47 0.45L277.47 0.45Q279.57 0.45 281.42-0.33 283.27-1.1 284.62-2.45ZM273.32-5.3L273.32-5.3Q272.52-6.05 272.07-7.1 271.62-8.15 271.62-9.35L271.62-9.35Q271.62-10.55 272.07-11.6 272.52-12.65 273.32-13.45L273.32-13.45Q274.07-14.25 275.12-14.7 276.17-15.15 277.37-15.15L277.37-15.15Q278.57-15.15 279.62-14.7 280.67-14.25 281.47-13.45L281.47-13.45Q282.27-12.65 282.72-11.6 283.17-10.55 283.17-9.35L283.17-9.35Q283.17-8.15 282.72-7.1 282.27-6.05 281.47-5.3L281.47-5.3Q280.67-4.5 279.62-4.05 278.57-3.6 277.37-3.6L277.37-3.6Q276.17-3.6 275.12-4.05 274.07-4.5 273.32-5.3ZM291.02 0L302.12 0 302.12-3.95 298.97-3.95 298.97-37.5 291.52-37.5 291.52-33.55 294.82-33.55 294.82-3.95 291.02-3.95 291.02 0ZM305.62 0L316.72 0 316.72-3.95 313.57-3.95 313.57-37.5 306.12-37.5 306.12-33.55 309.42-33.55 309.42-3.95 305.62-3.95 305.62 0ZM336.61 0L344.06 0 344.06-3.95 340.26-3.95 340.26-18.75 336.81-18.75Q336.81-18.15 336.74-17.53 336.66-16.9 336.61-16.4L336.61-16.4Q336.21-17.25 334.61-18.23 333.01-19.2 330.26-19.2L330.26-19.2Q328.16-19.2 326.31-18.4 324.46-17.6 323.11-16.25L323.11-16.25Q321.76-14.9 320.99-13.1 320.21-11.3 320.21-9.35L320.21-9.35Q320.21-7.35 320.99-5.58 321.76-3.8 323.11-2.45L323.11-2.45Q324.46-1.1 326.31-0.33 328.16 0.45 330.26 0.45L330.26 0.45Q331.71 0.45 332.86 0.13 334.01-0.2 334.86-0.65L334.86-0.65Q335.66-1.05 336.11-1.45 336.56-1.85 336.61-2L336.61-2Q336.61-1.65 336.61-1.5 336.61-1.35 336.61-1L336.61-1 336.61 0ZM330.26-15.15L330.26-15.15Q331.51-15.15 332.54-14.75 333.56-14.35 334.36-13.65L334.36-13.65Q335.16-12.9 335.64-11.8 336.11-10.7 336.11-9.4L336.11-9.4Q336.11-8.1 335.64-7 335.16-5.9 334.31-5.1L334.31-5.1Q333.56-4.4 332.54-4 331.51-3.6 330.26-3.6L330.26-3.6Q329.16-3.6 328.21-3.93 327.26-4.25 326.56-4.8L326.56-4.8Q325.56-5.6 324.99-6.8 324.41-8 324.41-9.4L324.41-9.4Q324.41-10.6 324.79-11.6 325.16-12.6 325.86-13.35L325.86-13.35Q326.61-14.2 327.76-14.68 328.91-15.15 330.26-15.15ZM347.56-3.95L347.56 0 355.01 0 355.01-1Q355.01-1.35 355.01-1.5 355.01-1.65 355.01-2L355.01-2Q355.06-1.85 355.51-1.45 355.96-1.05 356.81-0.65L356.81-0.65Q357.61-0.2 358.76 0.13 359.91 0.45 361.36 0.45L361.36 0.45Q363.46 0.45 365.31-0.33 367.16-1.1 368.51-2.45L368.51-2.45Q369.86-3.8 370.64-5.6 371.41-7.4 371.41-9.4L371.41-9.4Q371.41-11.4 370.64-13.18 369.86-14.95 368.51-16.3L368.51-16.3Q367.16-17.65 365.31-18.43 363.46-19.2 361.36-19.2L361.36-19.2Q360.06-19.2 358.94-18.85 357.81-18.5 356.96-18.05L356.96-18.05Q356.11-17.6 355.76-17.28 355.41-16.95 355.36-16.8L355.36-16.8Q355.46-17.2 355.49-17.48 355.51-17.75 355.51-18.1L355.51-18.1 355.51-37.5 348.06-37.5 348.06-33.55 351.36-33.55 351.36-3.95 347.56-3.95ZM361.36-15.15L361.36-15.15Q362.56-15.15 363.59-14.78 364.61-14.4 365.36-13.75L365.36-13.75Q366.21-13 366.71-11.88 367.21-10.75 367.21-9.4L367.21-9.4Q367.21-8.15 366.76-7.08 366.31-6 365.56-5.2L365.56-5.2Q364.76-4.45 363.71-4.03 362.66-3.6 361.36-3.6L361.36-3.6Q360.16-3.6 359.14-4 358.11-4.4 357.31-5.05L357.31-5.05Q356.46-5.85 355.99-6.98 355.51-8.1 355.51-9.4L355.51-9.4Q355.51-10.55 355.89-11.58 356.26-12.6 356.96-13.35L356.96-13.35Q357.71-14.2 358.84-14.68 359.96-15.15 361.36-15.15ZM392.06-2.45L392.06-2.45Q393.41-3.8 394.18-5.58 394.96-7.35 394.96-9.4L394.96-9.4Q394.96-11.4 394.18-13.2 393.41-15 392.06-16.35L392.06-16.35Q390.71-17.65 388.86-18.43 387.01-19.2 384.91-19.2L384.91-19.2Q382.81-19.2 380.98-18.43 379.16-17.65 377.81-16.35L377.81-16.35Q376.46-15 375.68-13.2 374.91-11.4 374.91-9.4L374.91-9.4Q374.91-7.35 375.68-5.58 376.46-3.8 377.81-2.45L377.81-2.45Q379.16-1.1 380.98-0.33 382.81 0.45 384.91 0.45L384.91 0.45Q387.01 0.45 388.86-0.33 390.71-1.1 392.06-2.45ZM380.76-5.3L380.76-5.3Q379.96-6.05 379.51-7.1 379.06-8.15 379.06-9.35L379.06-9.35Q379.06-10.55 379.51-11.6 379.96-12.65 380.76-13.45L380.76-13.45Q381.51-14.25 382.56-14.7 383.61-15.15 384.81-15.15L384.81-15.15Q386.01-15.15 387.06-14.7 388.11-14.25 388.91-13.45L388.91-13.45Q389.71-12.65 390.16-11.6 390.61-10.55 390.61-9.35L390.61-9.35Q390.61-8.15 390.16-7.1 389.71-6.05 388.91-5.3L388.91-5.3Q388.11-4.5 387.06-4.05 386.01-3.6 384.81-3.6L384.81-3.6Q383.61-3.6 382.56-4.05 381.51-4.5 380.76-5.3ZM398.46 0L409.56 0 409.56-3.95 406.41-3.95 406.41-9.1Q406.41-10.65 407.08-11.9 407.76-13.15 408.96-13.95L408.96-13.95Q409.76-14.5 410.83-14.8 411.91-15.1 413.16-15.1L413.16-15.1 413.46-19.2Q412.71-19.2 411.73-18.85 410.76-18.5 409.71-17.8L409.71-17.8Q408.71-17.15 407.78-16.18 406.86-15.2 406.26-13.95L406.26-13.95Q406.16-15.15 406.18-15.05 406.21-14.95 406.11-16.15L406.11-16.15 405.91-18.75 398.96-18.75 398.96-14.8 402.26-14.8 402.26-3.95 398.46-3.95 398.46 0ZM433.35 0L440.8 0 440.8-3.95 437-3.95 437-18.75 433.55-18.75Q433.55-18.15 433.48-17.53 433.4-16.9 433.35-16.4L433.35-16.4Q432.95-17.25 431.35-18.23 429.75-19.2 427-19.2L427-19.2Q424.9-19.2 423.05-18.4 421.2-17.6 419.85-16.25L419.85-16.25Q418.5-14.9 417.73-13.1 416.95-11.3 416.95-9.35L416.95-9.35Q416.95-7.35 417.73-5.58 418.5-3.8 419.85-2.45L419.85-2.45Q421.2-1.1 423.05-0.33 424.9 0.45 427 0.45L427 0.45Q428.45 0.45 429.6 0.13 430.75-0.2 431.6-0.65L431.6-0.65Q432.4-1.05 432.85-1.45 433.3-1.85 433.35-2L433.35-2Q433.35-1.65 433.35-1.5 433.35-1.35 433.35-1L433.35-1 433.35 0ZM427-15.15L427-15.15Q428.25-15.15 429.28-14.75 430.3-14.35 431.1-13.65L431.1-13.65Q431.9-12.9 432.38-11.8 432.85-10.7 432.85-9.4L432.85-9.4Q432.85-8.1 432.38-7 431.9-5.9 431.05-5.1L431.05-5.1Q430.3-4.4 429.28-4 428.25-3.6 427-3.6L427-3.6Q425.9-3.6 424.95-3.93 424-4.25 423.3-4.8L423.3-4.8Q422.3-5.6 421.73-6.8 421.15-8 421.15-9.4L421.15-9.4Q421.15-10.6 421.53-11.6 421.9-12.6 422.6-13.35L422.6-13.35Q423.35-14.2 424.5-14.68 425.65-15.15 427-15.15ZM448.5 0L456.4 0 456.4-3.95 452.65-3.95 452.65-14.7 457.55-14.7 457.55-18.75 452.65-18.75 452.65-30.95 448.5-30.95 448.5-18.75 444.3-18.75 444.3-14.7 448.5-14.7 448.5 0ZM471.05-15.15L471.05-15.15Q472.1-15.15 472.97-14.63 473.85-14.1 474.55-13.25L474.55-13.25Q472.2-12.4 469.87-11.53 467.55-10.65 465.2-9.8L465.2-9.8Q465.25-10.85 465.62-11.75 466-12.65 466.6-13.35L466.6-13.35Q467.4-14.2 468.52-14.68 469.65-15.15 471.05-15.15ZM477.4-2.2L477.4-2.2 474.85-5.2Q474.1-4.4 473.15-4 472.2-3.6 471.05-3.6L471.05-3.6Q469.5-3.6 468.27-4.23 467.05-4.85 466.3-5.9L466.3-5.9Q469.7-7.15 473.07-8.4 476.45-9.65 479.85-10.9L479.85-10.9Q479.4-12.7 478.55-14.23 477.7-15.75 476.6-16.85L476.6-16.85Q475.45-17.95 474.02-18.57 472.6-19.2 471.05-19.2L471.05-19.2Q468.95-19.2 467.12-18.43 465.3-17.65 463.95-16.35L463.95-16.35Q462.6-15 461.82-13.2 461.05-11.4 461.05-9.4L461.05-9.4Q461.05-7.35 461.82-5.58 462.6-3.8 463.95-2.45L463.95-2.45Q465.3-1.1 467.12-0.33 468.95 0.45 471.05 0.45L471.05 0.45Q472.95 0.45 474.55-0.25 476.15-0.95 477.4-2.2ZM514.94 0L522.39 0 522.39-3.95 518.59-3.95 518.59-18.75 515.14-18.75Q515.14-18.15 515.07-17.53 514.99-16.9 514.94-16.4L514.94-16.4Q514.54-17.25 512.94-18.23 511.34-19.2 508.59-19.2L508.59-19.2Q506.49-19.2 504.64-18.4 502.79-17.6 501.44-16.25L501.44-16.25Q500.09-14.9 499.32-13.1 498.54-11.3 498.54-9.35L498.54-9.35Q498.54-7.35 499.32-5.58 500.09-3.8 501.44-2.45L501.44-2.45Q502.79-1.1 504.64-0.33 506.49 0.45 508.59 0.45L508.59 0.45Q510.04 0.45 511.19 0.13 512.34-0.2 513.19-0.65L513.19-0.65Q513.99-1.05 514.44-1.45 514.89-1.85 514.94-2L514.94-2Q514.94-1.65 514.94-1.5 514.94-1.35 514.94-1L514.94-1 514.94 0ZM508.59-15.15L508.59-15.15Q509.84-15.15 510.87-14.75 511.89-14.35 512.69-13.65L512.69-13.65Q513.49-12.9 513.97-11.8 514.44-10.7 514.44-9.4L514.44-9.4Q514.44-8.1 513.97-7 513.49-5.9 512.64-5.1L512.64-5.1Q511.89-4.4 510.87-4 509.84-3.6 508.59-3.6L508.59-3.6Q507.49-3.6 506.54-3.93 505.59-4.25 504.89-4.8L504.89-4.8Q503.89-5.6 503.32-6.8 502.74-8 502.74-9.4L502.74-9.4Q502.74-10.6 503.12-11.6 503.49-12.6 504.19-13.35L504.19-13.35Q504.94-14.2 506.09-14.68 507.24-15.15 508.59-15.15ZM525.89 0L536.99 0 536.99-3.95 533.84-3.95 533.84-9.1Q533.84-10.4 534.39-11.5 534.94-12.6 535.84-13.4L535.84-13.4Q536.74-14.2 537.92-14.65 539.09-15.1 540.39-15.1L540.39-15.1Q542.29-15 543.17-14.03 544.04-13.05 544.14-11.7L544.14-11.7 544.14-3.95 540.29-3.95 540.29 0 551.39 0 551.39-3.95 548.29-3.95 548.29-13.6Q548.19-16.1 546.49-17.65 544.79-19.2 541.84-19.2L541.84-19.2Q539.14-19.2 536.92-17.78 534.69-16.35 533.69-13.95L533.69-13.95Q533.59-15.15 533.52-16.13 533.44-17.1 533.34-18.3L533.34-18.3 533.34-18.75 526.39-18.75 526.39-14.8 529.69-14.8 529.69-3.95 525.89-3.95 525.89 0ZM571.29 0L578.74 0 578.74-3.95 574.94-3.95 574.94-37.5 567.49-37.5 567.49-33.55 570.79-33.55 570.79-18.9Q570.79-18.55 570.81-17.93 570.84-17.3 570.94-16.9L570.94-16.9Q570.84-17.05 570.49-17.32 570.14-17.6 569.29-18.05L569.29-18.05Q568.44-18.5 567.31-18.85 566.19-19.2 564.94-19.2L564.94-19.2Q562.84-19.2 560.99-18.43 559.14-17.65 557.79-16.3L557.79-16.3Q556.44-14.95 555.66-13.18 554.89-11.4 554.89-9.4L554.89-9.4Q554.89-7.4 555.66-5.6 556.44-3.8 557.79-2.45L557.79-2.45Q559.14-1.1 560.99-0.33 562.84 0.45 564.94 0.45L564.94 0.45Q566.39 0.45 567.54 0.13 568.69-0.2 569.54-0.65L569.54-0.65Q570.34-1.05 570.79-1.45 571.24-1.85 571.29-2L571.29-2Q571.29-1.65 571.29-1.5 571.29-1.35 571.29-1L571.29-1 571.29 0ZM564.94-15.15L564.94-15.15Q566.09-15.15 567.09-14.8 568.09-14.45 568.84-13.85L568.84-13.85Q569.74-13.1 570.26-11.95 570.79-10.8 570.79-9.4L570.79-9.4Q570.79-8.1 570.29-6.95 569.79-5.8 568.94-5.05L568.94-5.05Q568.14-4.35 567.14-3.98 566.14-3.6 564.94-3.6L564.94-3.6Q563.74-3.6 562.71-3.98 561.69-4.35 560.94-5.05L560.94-5.05Q560.09-5.8 559.59-6.95 559.09-8.1 559.09-9.4L559.09-9.4Q559.09-10.65 559.51-11.68 559.94-12.7 560.64-13.5L560.64-13.5Q561.44-14.25 562.54-14.7 563.64-15.15 564.94-15.15ZM615.38-2.2L615.38-2.2Q616.78-3.5 617.61-5.3 618.43-7.1 618.43-9.35L618.43-9.35Q618.43-13 617.13-15.1 615.83-17.2 613.73-18.2L613.73-18.2Q611.43-19.3 608.93-20.03 606.43-20.75 604.63-21.7L604.63-21.7Q603.48-22.35 602.78-23.28 602.08-24.2 602.08-25.7L602.08-25.7Q602.08-26.8 602.41-27.78 602.73-28.75 603.38-29.5L603.38-29.5Q604.08-30.3 605.18-30.78 606.28-31.25 607.78-31.25L607.78-31.25Q609.28-31.25 610.53-30.95 611.78-30.65 612.73-30.25L612.73-30.25 612.73-27.3 616.68-27.3 616.68-32.2Q615.48-33.2 614.26-33.8 613.03-34.4 611.88-34.7L611.88-34.7Q610.73-35 609.68-35.1 608.63-35.2 607.73-35.2L607.73-35.2Q604.98-35.2 603.08-34.35 601.18-33.5 600.03-32.15L600.03-32.15Q598.88-30.8 598.38-29.15 597.88-27.5 597.93-25.85L597.93-25.85Q597.98-22.75 599.21-21.05 600.43-19.35 602.28-18.4L602.28-18.4Q604.08-17.45 606.18-16.9 608.28-16.35 610.08-15.6L610.08-15.6Q611.23-15.05 612.11-14.43 612.98-13.8 613.63-12.75L613.63-12.75Q614.03-12.1 614.16-11.2 614.28-10.3 614.28-9.4L614.28-9.4Q614.28-7.95 613.73-6.85 613.18-5.75 612.28-5L612.28-5Q611.33-4.3 610.13-3.93 608.93-3.55 607.63-3.55L607.63-3.55Q605.38-3.55 603.58-4.28 601.78-5 600.48-6L600.48-6 600.48-10.45 596.53-10.45 596.53-4.65Q597.18-3.65 598.36-2.75 599.53-1.85 601.03-1.15L601.03-1.15Q602.53-0.45 604.33-0.03 606.13 0.4 608.03 0.4L608.03 0.4Q610.13 0.4 612.03-0.28 613.93-0.95 615.38-2.2ZM621.13 0L632.23 0 632.23-3.95 629.08-3.95 629.08-9.1Q629.08-10.4 629.63-11.5 630.18-12.6 631.08-13.4L631.08-13.4Q631.98-14.2 633.15-14.65 634.33-15.1 635.63-15.1L635.63-15.1Q637.53-15 638.4-14.03 639.28-13.05 639.38-11.7L639.38-11.7 639.38-3.95 635.53-3.95 635.53 0 646.63 0 646.63-3.95 643.53-3.95 643.53-13.6Q643.43-16.1 641.73-17.65 640.03-19.2 637.08-19.2L637.08-19.2Q634.23-19.05 632.13-17.73 630.03-16.4 628.93-13.95L628.93-13.95 629.08-16.2 629.08-37.5 621.13-37.5 621.13-33.55 624.93-33.55 624.93-3.95 621.13-3.95 621.13 0ZM666.53 0L673.98 0 673.98-3.95 670.18-3.95 670.18-18.75 666.73-18.75Q666.73-18.15 666.65-17.53 666.58-16.9 666.53-16.4L666.53-16.4Q666.13-17.25 664.53-18.23 662.93-19.2 660.18-19.2L660.18-19.2Q658.08-19.2 656.23-18.4 654.38-17.6 653.03-16.25L653.03-16.25Q651.68-14.9 650.9-13.1 650.13-11.3 650.13-9.35L650.13-9.35Q650.13-7.35 650.9-5.58 651.68-3.8 653.03-2.45L653.03-2.45Q654.38-1.1 656.23-0.33 658.08 0.45 660.18 0.45L660.18 0.45Q661.63 0.45 662.78 0.13 663.93-0.2 664.78-0.65L664.78-0.65Q665.58-1.05 666.03-1.45 666.48-1.85 666.53-2L666.53-2Q666.53-1.65 666.53-1.5 666.53-1.35 666.53-1L666.53-1 666.53 0ZM660.18-15.15L660.18-15.15Q661.43-15.15 662.45-14.75 663.48-14.35 664.28-13.65L664.28-13.65Q665.08-12.9 665.55-11.8 666.03-10.7 666.03-9.4L666.03-9.4Q666.03-8.1 665.55-7 665.08-5.9 664.23-5.1L664.23-5.1Q663.48-4.4 662.45-4 661.43-3.6 660.18-3.6L660.18-3.6Q659.08-3.6 658.13-3.93 657.18-4.25 656.48-4.8L656.48-4.8Q655.48-5.6 654.9-6.8 654.33-8 654.33-9.4L654.33-9.4Q654.33-10.6 654.7-11.6 655.08-12.6 655.78-13.35L655.78-13.35Q656.53-14.2 657.68-14.68 658.83-15.15 660.18-15.15ZM677.47 0L688.57 0 688.57-3.95 685.42-3.95 685.42-9.1Q685.42-10.65 686.1-11.9 686.77-13.15 687.97-13.95L687.97-13.95Q688.77-14.5 689.85-14.8 690.92-15.1 692.17-15.1L692.17-15.1 692.47-19.2Q691.72-19.2 690.75-18.85 689.77-18.5 688.72-17.8L688.72-17.8Q687.72-17.15 686.8-16.18 685.87-15.2 685.27-13.95L685.27-13.95Q685.17-15.15 685.2-15.05 685.22-14.95 685.12-16.15L685.12-16.15 684.92-18.75 677.97-18.75 677.97-14.8 681.27-14.8 681.27-3.95 677.47-3.95 677.47 0ZM705.97-15.15L705.97-15.15Q707.02-15.15 707.9-14.63 708.77-14.1 709.47-13.25L709.47-13.25Q707.12-12.4 704.8-11.53 702.47-10.65 700.12-9.8L700.12-9.8Q700.17-10.85 700.55-11.75 700.92-12.65 701.52-13.35L701.52-13.35Q702.32-14.2 703.45-14.68 704.57-15.15 705.97-15.15ZM712.32-2.2L712.32-2.2 709.77-5.2Q709.02-4.4 708.07-4 707.12-3.6 705.97-3.6L705.97-3.6Q704.42-3.6 703.2-4.23 701.97-4.85 701.22-5.9L701.22-5.9Q704.62-7.15 708-8.4 711.37-9.65 714.77-10.9L714.77-10.9Q714.32-12.7 713.47-14.23 712.62-15.75 711.52-16.85L711.52-16.85Q710.37-17.95 708.95-18.57 707.52-19.2 705.97-19.2L705.97-19.2Q703.87-19.2 702.05-18.43 700.22-17.65 698.87-16.35L698.87-16.35Q697.52-15 696.75-13.2 695.97-11.4 695.97-9.4L695.97-9.4Q695.97-7.35 696.75-5.58 697.52-3.8 698.87-2.45L698.87-2.45Q700.22-1.1 702.05-0.33 703.87 0.45 705.97 0.45L705.97 0.45Q707.87 0.45 709.47-0.25 711.07-0.95 712.32-2.2Z" opacity="1" transform="matrix(1,0,0,1,0,0)" fill="#8eaec4" class="undefined-text-1" data-fill-palette-color="secondary" id="text-1"></path></svg></g></svg></g></svg></g></svg></g><g transform="matrix(1,0,0,1,0,17.53316310867109)"><svg viewBox="0 0 211.97535960000002 202.3401159818182" height="202.3401159818182" width="211.97535960000002"><g><svg xmlns="http://www.w3.org/2000/svg" xmlns:xlink="http://www.w3.org/1999/xlink" version="1.1" x="0" y="0" viewBox="36 46 440 420" style="enable-background:new 0 0 512 512;" xml:space="preserve" height="202.3401159818182" width="211.97535960000002" class="icon-icon-0" data-fill-palette-color="accent" id="icon-0"><g fill="#283132" data-fill-palette-color="accent"><g fill="#283132" data-fill-palette-color="accent"><g fill="#283132" data-fill-palette-color="accent"><g fill="#283132" data-fill-palette-color="accent"><path d="M320.996 466c-1.006 0-2.021-0.302-2.902-0.932l-140-100c-2.247-1.604-2.768-4.728-1.163-6.975 1.605-2.248 4.727-2.77 6.975-1.162l140 100c2.247 1.604 2.768 4.728 1.162 6.975C324.093 465.272 322.556 466 320.996 466z" fill="#283132" data-fill-palette-color="accent"></path></g><g fill="#283132" data-fill-palette-color="accent"><path d="M170.996 186c-0.953 0-1.917-0.272-2.769-0.84-2.298-1.532-2.918-4.636-1.387-6.934l20-30c1.531-2.298 4.636-2.918 6.934-1.387 2.298 1.532 2.918 4.636 1.387 6.934l-20 30C174.197 185.219 172.611 186 170.996 186z" fill="#283132" data-fill-palette-color="accent"></path></g><g fill="#283132" data-fill-palette-color="accent"><path d="M191.004 156c-1.616 0-3.201-0.782-4.165-2.227l-20-30c-1.532-2.297-0.911-5.402 1.387-6.934 2.298-1.531 5.402-0.912 6.934 1.387l20 30c1.532 2.297 0.911 5.402-1.387 6.934C192.921 155.729 191.958 156 191.004 156z" fill="#283132" data-fill-palette-color="accent"></path></g><g fill="#283132" data-fill-palette-color="accent"><path d="M191 156H41c-2.761 0-5-2.239-5-5s2.239-5 5-5h150c2.761 0 5 2.239 5 5S193.761 156 191 156z" fill="#283132" data-fill-palette-color="accent"></path></g><g fill="#283132" data-fill-palette-color="accent"><path d="M471 466c-1.32 0-2.61-0.53-3.54-1.47C466.53 463.6 466 462.31 466 461c0-1.32 0.53-2.601 1.46-3.54 0.93-0.93 2.22-1.46 3.54-1.46 1.319 0 2.609 0.53 3.54 1.46 0.93 0.939 1.46 2.22 1.46 3.54 0 1.31-0.53 2.6-1.46 3.53C473.6 465.47 472.319 466 471 466z" fill="#283132" data-fill-palette-color="accent"></path></g><g fill="#283132" data-fill-palette-color="accent"><path d="M441 466H311c-2.762 0-5-2.238-5-5s2.238-5 5-5h130c2.762 0 5 2.238 5 5S443.762 466 441 466z" fill="#283132" data-fill-palette-color="accent"></path></g><g fill="#283132" data-fill-palette-color="accent"><path d="M101 56c-1.32 0-2.61-0.53-3.53-1.47C96.53 53.61 96 52.32 96 51c0-1.32 0.53-2.6 1.47-3.54C98.4 46.53 99.68 46 101 46c1.32 0 2.61 0.53 3.54 1.46C105.47 48.4 106 49.68 106 51c0 1.32-0.53 2.6-1.46 3.53C103.61 55.47 102.32 56 101 56z" fill="#283132" data-fill-palette-color="accent"></path></g><g fill="#283132" data-fill-palette-color="accent"><path d="M261 56H131c-2.761 0-5-2.239-5-5s2.239-5 5-5h130c2.762 0 5 2.239 5 5S263.762 56 261 56z" fill="#283132" data-fill-palette-color="accent"></path></g><g fill="#283132" data-fill-palette-color="accent"><path d="M321 466H141c-2.761 0-5-2.238-5-5V221c0-2.761 2.239-5 5-5h75V96h-39.146c-2.001 0-3.811-1.194-4.597-3.034-0.787-1.841-0.4-3.973 0.982-5.42C198.841 60.754 233.561 46 271 46h10c36.284 0 70.248 13.98 95.634 39.366S416 144.715 416 181v80c0 2.762-2.238 5-5 5h-25v85c0 2.762-2.238 5-5 5h-55v105C326 463.762 323.762 466 321 466zM146 456h170V351c0-2.762 2.238-5 5-5h55v-85c0-2.762 2.238-5 5-5h25v-75c0-68.925-56.075-125-125-125h-10c-30.515 0-59.068 10.57-81.63 30H221c2.761 0 5 2.239 5 5v130c0 2.761-2.239 5-5 5h-75V456z" fill="#283132" data-fill-palette-color="accent"></path></g><g fill="#283132" data-fill-palette-color="accent"><path d="M221 226H111c-2.761 0-5-2.239-5-5V91c0-2.761 2.239-5 5-5h110c2.761 0 5 2.239 5 5v130C226 223.761 223.761 226 221 226zM116 216h100V96H116V216z" fill="#283132" data-fill-palette-color="accent"></path></g><g fill="#283132" data-fill-palette-color="accent"><path d="M271.001 276c-1.301 0-2.58-0.508-3.536-1.465l-50-50C216.527 223.598 216 222.326 216 221V91c0-2.022 1.218-3.846 3.086-4.62 1.869-0.772 4.019-0.346 5.449 1.084l50 50c0.938 0.938 1.465 2.209 1.465 3.536v130c0 2.022-1.218 3.846-3.087 4.619C272.295 275.876 271.646 276 271.001 276zM226 218.929l40 40V143.071l-40-40V218.929z" fill="#283132" data-fill-palette-color="accent"></path></g></g></g></g></svg></g></svg></g></svg></g><defs></defs></svg><rect width="395.52" height="154.86397964768224" fill="none" stroke="none" visibility="hidden"></rect></g></svg></g></svg>